<svg xmlns="http://www.w3.org/2000/svg" width="19.684" height="22" viewBox="0 0 19.684 22"><path d="M32.092,27.282a6.449,6.449,0,0,1-6.3-5.243,6.532,6.532,0,0,1,3.842-7.288,6.379,6.379,0,0,1,7.8,2.4,6.579,6.579,0,0,1-.8,8.224A6.344,6.344,0,0,1,32.092,27.282Zm0-11.023a4.511,4.511,0,1,0,4.451,4.506A4.481,4.481,0,0,0,32.092,16.259Zm8.853,20a1,1,0,0,1-.989-1,7.866,7.866,0,1,0-15.73,0,.989.989,0,1,1-1.977,0,9.945,9.945,0,0,1,7.89-9.773,9.816,9.816,0,0,1,11.021,5.89,10.014,10.014,0,0,1,.773,3.883,1.008,1.008,0,0,1-.289.709A.981.981,0,0,1,40.946,36.255Z" transform="translate(-22.25 -14.255)" fill="#fff"/></svg>
